<mxfile host="Electron" modified="2023-05-08T09:29:15.982Z" agent="Mozilla/5.0 (Windows NT 10.0; Win64; x64) AppleWebKit/537.36 (KHTML, like Gecko) draw.io/21.2.1 Chrome/112.0.5615.87 Electron/24.1.2 Safari/537.36" etag="gtmF9zVgGHyWoHrhWacW" version="21.2.1" type="device">
  <diagram name="第 1 页" id="QoddUvNeKvN_IUfzqx4K">
    <mxGraphModel dx="931" dy="1254" grid="1" gridSize="10" guides="1" tooltips="1" connect="1" arrows="1" fold="1" page="1" pageScale="1" pageWidth="827" pageHeight="1169" math="0" shadow="0">
      <root>
        <mxCell id="0" />
        <mxCell id="1" parent="0" />
        <mxCell id="PoWQCDL0FBw1ZR0qfgTg-110" value="用户登录信息" style="edgeStyle=orthogonalEdgeStyle;rounded=0;orthogonalLoop=1;jettySize=auto;html=1;exitX=0.5;exitY=0;exitDx=0;exitDy=0;entryX=0;entryY=0.5;entryDx=0;entryDy=0;entryPerimeter=0;" edge="1" parent="1" source="PoWQCDL0FBw1ZR0qfgTg-118" target="PoWQCDL0FBw1ZR0qfgTg-119">
          <mxGeometry relative="1" as="geometry" />
        </mxCell>
        <mxCell id="PoWQCDL0FBw1ZR0qfgTg-111" value="用户账号信息" style="edgeStyle=orthogonalEdgeStyle;rounded=0;orthogonalLoop=1;jettySize=auto;html=1;exitX=0.75;exitY=0;exitDx=0;exitDy=0;entryX=0;entryY=0.5;entryDx=0;entryDy=0;entryPerimeter=0;" edge="1" parent="1" source="PoWQCDL0FBw1ZR0qfgTg-118" target="PoWQCDL0FBw1ZR0qfgTg-131">
          <mxGeometry relative="1" as="geometry" />
        </mxCell>
        <mxCell id="PoWQCDL0FBw1ZR0qfgTg-166" style="edgeStyle=orthogonalEdgeStyle;rounded=0;orthogonalLoop=1;jettySize=auto;html=1;exitX=0.75;exitY=1;exitDx=0;exitDy=0;entryX=0;entryY=0.5;entryDx=0;entryDy=0;entryPerimeter=0;" edge="1" parent="1" source="PoWQCDL0FBw1ZR0qfgTg-118" target="PoWQCDL0FBw1ZR0qfgTg-155">
          <mxGeometry relative="1" as="geometry" />
        </mxCell>
        <mxCell id="PoWQCDL0FBw1ZR0qfgTg-167" style="edgeStyle=orthogonalEdgeStyle;rounded=0;orthogonalLoop=1;jettySize=auto;html=1;exitX=0.5;exitY=1;exitDx=0;exitDy=0;entryX=0;entryY=0.5;entryDx=0;entryDy=0;entryPerimeter=0;" edge="1" parent="1" source="PoWQCDL0FBw1ZR0qfgTg-118" target="PoWQCDL0FBw1ZR0qfgTg-165">
          <mxGeometry relative="1" as="geometry" />
        </mxCell>
        <mxCell id="PoWQCDL0FBw1ZR0qfgTg-118" value="指导教师" style="html=1;dashed=0;whiteSpace=wrap;fillColor=#f5f5f5;fontColor=#333333;strokeColor=#666666;" vertex="1" parent="1">
          <mxGeometry x="40" y="410" width="100" height="50" as="geometry" />
        </mxCell>
        <mxCell id="PoWQCDL0FBw1ZR0qfgTg-119" value="用户登录" style="html=1;dashed=0;whiteSpace=wrap;shape=mxgraph.dfd.start;fillColor=#f5f5f5;fontColor=#333333;strokeColor=#666666;" vertex="1" parent="1">
          <mxGeometry x="300" y="140" width="136" height="60" as="geometry" />
        </mxCell>
        <mxCell id="PoWQCDL0FBw1ZR0qfgTg-120" value="验证" style="edgeStyle=orthogonalEdgeStyle;rounded=0;orthogonalLoop=1;jettySize=auto;html=1;exitX=0.5;exitY=0;exitDx=0;exitDy=0;entryX=1;entryY=0.5;entryDx=0;entryDy=0;entryPerimeter=0;" edge="1" parent="1" source="PoWQCDL0FBw1ZR0qfgTg-122" target="PoWQCDL0FBw1ZR0qfgTg-119">
          <mxGeometry relative="1" as="geometry" />
        </mxCell>
        <mxCell id="PoWQCDL0FBw1ZR0qfgTg-121" value="用户信息" style="edgeStyle=orthogonalEdgeStyle;rounded=0;orthogonalLoop=1;jettySize=auto;html=1;" edge="1" parent="1" source="PoWQCDL0FBw1ZR0qfgTg-122" target="PoWQCDL0FBw1ZR0qfgTg-129">
          <mxGeometry relative="1" as="geometry" />
        </mxCell>
        <mxCell id="PoWQCDL0FBw1ZR0qfgTg-122" value="用户信息表" style="html=1;dashed=0;whiteSpace=wrap;shape=partialRectangle;right=0;fillColor=#f5f5f5;fontColor=#333333;strokeColor=#666666;" vertex="1" parent="1">
          <mxGeometry x="580" y="330" width="110" height="55" as="geometry" />
        </mxCell>
        <mxCell id="PoWQCDL0FBw1ZR0qfgTg-123" value="教师信息" style="edgeStyle=orthogonalEdgeStyle;rounded=0;orthogonalLoop=1;jettySize=auto;html=1;exitX=0;exitY=0.5;exitDx=0;exitDy=0;entryX=1;entryY=0.5;entryDx=0;entryDy=0;entryPerimeter=0;" edge="1" parent="1" source="PoWQCDL0FBw1ZR0qfgTg-124" target="PoWQCDL0FBw1ZR0qfgTg-129">
          <mxGeometry relative="1" as="geometry" />
        </mxCell>
        <mxCell id="PoWQCDL0FBw1ZR0qfgTg-124" value="教师信息表" style="html=1;dashed=0;whiteSpace=wrap;shape=partialRectangle;right=0;fillColor=#f5f5f5;fontColor=#333333;strokeColor=#666666;" vertex="1" parent="1">
          <mxGeometry x="580" y="410" width="110" height="55" as="geometry" />
        </mxCell>
        <mxCell id="PoWQCDL0FBw1ZR0qfgTg-125" value="课题信息" style="edgeStyle=orthogonalEdgeStyle;rounded=0;orthogonalLoop=1;jettySize=auto;html=1;exitX=0;exitY=0.5;exitDx=0;exitDy=0;entryX=0.5;entryY=0.5;entryDx=0;entryDy=30;entryPerimeter=0;" edge="1" parent="1" source="PoWQCDL0FBw1ZR0qfgTg-127" target="PoWQCDL0FBw1ZR0qfgTg-129">
          <mxGeometry relative="1" as="geometry">
            <mxPoint x="390" y="470" as="targetPoint" />
          </mxGeometry>
        </mxCell>
        <mxCell id="PoWQCDL0FBw1ZR0qfgTg-127" value="课题信息表" style="html=1;dashed=0;whiteSpace=wrap;shape=partialRectangle;right=0;fillColor=#f5f5f5;fontColor=#333333;strokeColor=#666666;" vertex="1" parent="1">
          <mxGeometry x="580" y="490" width="110" height="55" as="geometry" />
        </mxCell>
        <mxCell id="PoWQCDL0FBw1ZR0qfgTg-128" value="个人信息" style="edgeStyle=orthogonalEdgeStyle;rounded=0;orthogonalLoop=1;jettySize=auto;html=1;exitX=0;exitY=0.5;exitDx=0;exitDy=0;exitPerimeter=0;entryX=1;entryY=0.5;entryDx=0;entryDy=0;" edge="1" parent="1" source="PoWQCDL0FBw1ZR0qfgTg-129" target="PoWQCDL0FBw1ZR0qfgTg-118">
          <mxGeometry relative="1" as="geometry" />
        </mxCell>
        <mxCell id="PoWQCDL0FBw1ZR0qfgTg-129" value="查看个人信息" style="html=1;dashed=0;whiteSpace=wrap;shape=mxgraph.dfd.start;fillColor=#f5f5f5;fontColor=#333333;strokeColor=#666666;" vertex="1" parent="1">
          <mxGeometry x="370" y="405" width="136" height="60" as="geometry" />
        </mxCell>
        <mxCell id="PoWQCDL0FBw1ZR0qfgTg-130" value="修改后的用户账号信息" style="edgeStyle=orthogonalEdgeStyle;rounded=0;orthogonalLoop=1;jettySize=auto;html=1;exitX=1;exitY=0.5;exitDx=0;exitDy=0;exitPerimeter=0;entryX=0.25;entryY=0;entryDx=0;entryDy=0;" edge="1" parent="1" source="PoWQCDL0FBw1ZR0qfgTg-131" target="PoWQCDL0FBw1ZR0qfgTg-122">
          <mxGeometry relative="1" as="geometry" />
        </mxCell>
        <mxCell id="PoWQCDL0FBw1ZR0qfgTg-131" value="账号管理" style="html=1;dashed=0;whiteSpace=wrap;shape=mxgraph.dfd.start;fillColor=#f5f5f5;fontColor=#333333;strokeColor=#666666;" vertex="1" parent="1">
          <mxGeometry x="346" y="240" width="136" height="60" as="geometry" />
        </mxCell>
        <mxCell id="PoWQCDL0FBw1ZR0qfgTg-164" value="选题信息" style="edgeStyle=orthogonalEdgeStyle;rounded=0;orthogonalLoop=1;jettySize=auto;html=1;exitX=0.25;exitY=0;exitDx=0;exitDy=0;" edge="1" parent="1" source="PoWQCDL0FBw1ZR0qfgTg-138" target="PoWQCDL0FBw1ZR0qfgTg-129">
          <mxGeometry relative="1" as="geometry">
            <mxPoint x="410" y="470" as="targetPoint" />
            <Array as="points">
              <mxPoint x="430" y="554" />
              <mxPoint x="430" y="530" />
              <mxPoint x="410" y="530" />
            </Array>
          </mxGeometry>
        </mxCell>
        <mxCell id="PoWQCDL0FBw1ZR0qfgTg-138" value="选题信息表" style="html=1;dashed=0;whiteSpace=wrap;shape=partialRectangle;right=0;fillColor=#f5f5f5;fontColor=#333333;strokeColor=#666666;" vertex="1" parent="1">
          <mxGeometry x="383" y="554" width="110" height="62" as="geometry" />
        </mxCell>
        <mxCell id="PoWQCDL0FBw1ZR0qfgTg-157" value="申报课题信息" style="edgeStyle=orthogonalEdgeStyle;rounded=0;orthogonalLoop=1;jettySize=auto;html=1;exitX=1;exitY=0.5;exitDx=0;exitDy=0;exitPerimeter=0;entryX=0.25;entryY=1;entryDx=0;entryDy=0;" edge="1" parent="1" source="PoWQCDL0FBw1ZR0qfgTg-155" target="PoWQCDL0FBw1ZR0qfgTg-127">
          <mxGeometry relative="1" as="geometry" />
        </mxCell>
        <mxCell id="PoWQCDL0FBw1ZR0qfgTg-155" value="申报课题" style="html=1;dashed=0;whiteSpace=wrap;shape=mxgraph.dfd.start;fillColor=#f5f5f5;fontColor=#333333;strokeColor=#666666;" vertex="1" parent="1">
          <mxGeometry x="200" y="640" width="136" height="60" as="geometry" />
        </mxCell>
        <mxCell id="PoWQCDL0FBw1ZR0qfgTg-165" value="下达任务书" style="html=1;dashed=0;whiteSpace=wrap;shape=mxgraph.dfd.start;fillColor=#f5f5f5;fontColor=#333333;strokeColor=#666666;" vertex="1" parent="1">
          <mxGeometry x="200" y="710" width="136" height="60" as="geometry" />
        </mxCell>
      </root>
    </mxGraphModel>
  </diagram>
</mxfile>
